<?xml version="1.0" encoding="iso-8859-1"?>
<!-- Generator: Adobe Illustrator 19.0.0, SVG Export Plug-In . SVG Version: 6.00 Build 0)  -->
<svg version="1.1" id="Layer_1" xmlns="http://www.w3.org/2000/svg" xmlns:xlink="http://www.w3.org/1999/xlink" x="0px" y="0px"
	 viewBox="0 0 512.001 512.001" style="enable-background:new 0 0 512.001 512.001;" xml:space="preserve">
<g>
	<g>
		<path d="M512.001,307.304c0-42.126-29.728-77.42-69.301-86.057v-11.035c0-53.599-42.222-97.919-95.447-100.868l-66.109-40.598
			c-21.163-12.991-40.86,19.017-19.67,32.032l61.405,37.709c0,22.169,0,85.708,0,107.597c0,4.725-3.839,8.57-8.558,8.57h-65.768
			c-4.765,0-8.57-3.89-8.57-8.57c0-4.793-1.809-9.153-4.762-12.473c3.052-6.706,4.766-14.143,4.766-21.978
			c0-29.362-23.888-53.25-53.25-53.25h-92.05c-29.362,0-53.25,23.888-53.25,53.25c0,7.83,1.713,15.261,4.76,21.963
			c-3.22,3.617,0.277-4.269-44.969,115.427c-4.642,12.283,4.448,25.44,17.58,25.44h43.317c3.562,39.983,37.083,71.836,78.593,71.836
			c41.419,0,75.011-31.793,78.578-71.836h126.017c3.562,39.983,37.083,71.836,78.593,71.836c61.548,0,99.523-67.806,67.189-120.2
			C504.814,326.099,512.001,317.151,512.001,307.304z M140.719,408.71c-26.064,0-45.595-23.824-40.522-49.394
			c8.533-43.093,70.195-44.314,80.631-1.794C187.231,384.275,166.955,408.71,140.719,408.71z M186.81,227.29H94.614
			c-8.602-0.04-15.588-7.047-15.588-15.657c0-8.635,7.025-15.661,15.661-15.661h92.05c8.635,0,15.661,7.025,15.661,15.661
			C202.398,220.245,195.411,227.251,186.81,227.29z M360.467,180.342v-30.716c15.928,4.974,29.328,16.094,37.169,30.716H360.467z
			 M423.906,408.712c-26,0-45.559-23.734-40.536-49.314c0.006-0.029,0.015-0.055,0.02-0.084
			c9.669-48.919,81.831-41.771,81.831,8.098C465.221,390.184,446.688,408.712,423.906,408.712z M442.699,288.51v-28.086
			c12.755,5.132,22.953,15.33,28.086,28.086H442.699z"/>
	</g>
</g>
<g>
</g>
<g>
</g>
<g>
</g>
<g>
</g>
<g>
</g>
<g>
</g>
<g>
</g>
<g>
</g>
<g>
</g>
<g>
</g>
<g>
</g>
<g>
</g>
<g>
</g>
<g>
</g>
<g>
</g>
</svg>
